<svg width="128" height="36" viewBox="0 0 128 36" fill="none" xmlns="http://www.w3.org/2000/svg">
<path d="M48.8636 3.72718V34.9999H47.8863V3.72718H48.8636Z" fill="white"/>
<path d="M24.4545 0.0908203H25.5454V23.2045C25.5454 25.5681 24.9943 27.6817 23.892 29.5454C22.8011 31.3976 21.3125 32.8635 19.4261 33.9431C17.5397 35.0113 15.3977 35.5454 13 35.5454C10.625 35.5454 8.48861 35.0056 6.59088 33.926C4.69316 32.8465 3.19316 31.3806 2.09088 29.5283C0.988611 27.6647 0.443156 25.5567 0.45452 23.2045V0.0908203H1.54543V23.2045C1.54543 25.3635 2.03975 27.2897 3.02838 28.9829C4.02838 30.676 5.39202 32.0113 7.11929 32.9885C8.84657 33.9658 10.8068 34.4545 13 34.4545C15.1932 34.4545 17.1534 33.9658 18.8807 32.9885C20.6079 32.0113 21.9659 30.676 22.9545 28.9829C23.9545 27.2897 24.4545 25.3635 24.4545 23.2045V0.0908203Z" fill="white"/>
<path d="M33.9318 1.18173V0.0908203H57.5227V1.18173H46.2727V34.9999H45.1818V1.18173H33.9318Z" fill="white"/>
<path d="M89.412 0.0908203H90.5029V23.2045C90.5029 25.5681 89.9518 27.6817 88.8495 29.5454C87.7586 31.3976 86.27 32.8635 84.3836 33.9431C82.4972 35.0113 80.3552 35.5454 77.9575 35.5454C75.5825 35.5454 73.4461 35.0056 71.5484 33.926C69.6507 32.8465 68.1507 31.3806 67.0484 29.5283C65.9461 27.6647 65.4007 25.5567 65.412 23.2045V0.0908203H66.5029V23.2045C66.5029 25.3635 66.9972 27.2897 67.9859 28.9829C68.9859 30.676 70.3495 32.0113 72.0768 32.9885C73.8041 33.9658 75.7643 34.4545 77.9575 34.4545C80.1507 34.4545 82.1109 33.9658 83.8382 32.9885C85.5654 32.0113 86.9234 30.676 87.912 28.9829C88.912 27.2897 89.412 25.3635 89.412 23.2045V0.0908203Z" fill="white"/>
<path d="M102.317 0.0908203L113.295 16.5226H113.431L124.408 0.0908203H125.772L114.045 17.5454L125.772 34.9999H124.408L113.431 18.5681H113.295L102.317 34.9999H100.954L112.681 17.5454L100.954 0.0908203H102.317Z" fill="white"/>
<path d="M104.182 0.0908203L113.847 15.2442H114.068L123.733 0.0908203H127.5L116.267 17.5454L127.5 34.9999H123.733L114.068 20.017H113.847L104.182 34.9999H100.415L111.818 17.5454L100.415 0.0908203H104.182Z" fill="white"/>
<path d="M88.9034 0.0908203H92.0909V23.2045C92.0909 25.5795 91.5341 27.7045 90.4204 29.5795C89.3068 31.4431 87.7557 32.9147 85.767 33.9942C83.7897 35.0624 81.4886 35.5965 78.8636 35.5965C76.25 35.5965 73.9488 35.0567 71.9602 33.9772C69.9716 32.8976 68.4204 31.426 67.3068 29.5624C66.1932 27.6988 65.6363 25.5795 65.6363 23.2045V0.0908203H68.8238V22.9829C68.8238 24.8351 69.2386 26.4885 70.0682 27.9431C70.8977 29.3863 72.0625 30.5226 73.5625 31.3522C75.0738 32.1817 76.8409 32.5965 78.8636 32.5965C80.8863 32.5965 82.6534 32.1817 84.1647 31.3522C85.6761 30.5226 86.8409 29.3863 87.6591 27.9431C88.4886 26.4885 88.9034 24.8351 88.9034 22.9829V0.0908203Z" fill="white"/>
</svg>
